<?xml version="1.0" standalone="no"?><!DOCTYPE svg PUBLIC "-//W3C//DTD SVG 1.1//EN" "http://www.w3.org/Graphics/SVG/1.1/DTD/svg11.dtd"><svg t="1557368814120" class="icon" style="" viewBox="0 0 1024 1024" version="1.1" xmlns="http://www.w3.org/2000/svg" p-id="2442" xmlns:xlink="http://www.w3.org/1999/xlink" width="200" height="200"><defs><style type="text/css"></style></defs><path d="M911.52 337.408c-4.08-68.848-35.072-133.216-82.864-172.176C787.168 131.408 732.304 112 678.08 112 595.36 112 543.2 147.44 512 190.256 480.8 147.44 428.64 112 345.92 112c-54.224 0-109.088 19.408-150.56 53.232-47.808 38.96-78.8 103.328-82.88 172.176-3.52 58.864 10.912 148.256 99.52 240C362.272 733.024 512 889.968 512 889.968s149.728-156.96 300-312.528c88.608-91.744 103.04-181.152 99.52-240z m-157.056 184.432a71867.68 71867.68 0 0 0-242.448 252.256c-44.48-46.496-135.76-141.76-242.48-252.256-68.448-70.864-79.776-136.816-77.216-179.68 3.296-55.2 29.84-95.568 53.6-114.928C272.96 205.168 310.336 192 345.92 192c114.352 0 124.8 101.696 126.16 112.048 1.92 14.704 13.392 31.952 41.664 31.952 26.752 0 35.52-18.496 38.16-31.68 2.304-11.392 11.84-112.32 126.176-112.32 35.568 0 72.96 13.168 100.032 35.248 23.728 19.36 50.288 59.696 53.568 114.928 2.56 42.848-8.768 108.8-77.216 179.68z" fill="#1296db" p-id="2443"></path></svg>