<?xml version="1.0" standalone="no"?><!DOCTYPE svg PUBLIC "-//W3C//DTD SVG 1.1//EN" "http://www.w3.org/Graphics/SVG/1.1/DTD/svg11.dtd"><svg t="1557730031928" class="icon" style="" viewBox="0 0 1024 1024" version="1.1" xmlns="http://www.w3.org/2000/svg" p-id="4015" xmlns:xlink="http://www.w3.org/1999/xlink" width="200" height="200"><defs><style type="text/css"></style></defs><path d="M511.358387 529.015535c-59.558467 0-115.550713-23.193235-157.665903-65.307402-42.114167-42.114167-65.307402-98.107435-65.307402-157.665903s23.193235-115.551736 65.307402-157.665903c42.114167-42.114167 98.107435-65.307402 157.665903-65.307402 59.558467 0 115.551736 23.193235 157.665903 65.307402s65.307402 98.107435 65.307402 157.665903-23.193235 115.551736-65.307402 157.665903C626.910123 505.8223 570.916854 529.015535 511.358387 529.015535zM511.358387 169.027671c-75.550697 0-137.015583 61.464887-137.015583 137.015583 0 75.550697 61.464887 137.015583 137.015583 137.015583 75.550697 0 137.016607-61.464887 137.016607-137.015583C648.37397 230.491535 586.909084 169.027671 511.358387 169.027671z" p-id="4016" fill="#ffffff"></path><path d="M910.762983 898.070916l-85.957721 0c0-171.915441-140.470265-313.131697-313.131697-313.131697-172.661432 0-313.131697 141.216255-313.131697 313.131697l-85.957721 0c0-53.211922 10.55745-105.931634 31.380708-155.160849 20.10285-47.52848 48.872081-90.107227 85.510536-126.743636 36.637432-36.638455 79.313394-65.358567 126.841873-85.46244 49.229215-20.822235 101.498672-31.355125 155.3563-31.355125 53.857629 0 106.127086 10.56973 155.3563 31.391964 47.52848 20.10285 90.204441 48.879244 126.841873 85.516676 36.638455 36.637432 65.407686 79.119989 85.510536 126.649492C900.205533 792.137235 910.762983 844.858994 910.762983 898.070916z" p-id="4017" fill="#ffffff"></path></svg>